<?xml version="1.0" standalone="no"?>
<!DOCTYPE svg PUBLIC "-//W3C//DTD SVG 20010904//EN"
 "http://www.w3.org/TR/2001/REC-SVG-20010904/DTD/svg10.dtd">
<svg version="1.0" xmlns="http://www.w3.org/2000/svg"
 width="2690.000000pt" height="2689.000000pt" viewBox="0 0 2690.000000 2689.000000"
 preserveAspectRatio="xMidYMid meet">
<metadata>
Created by potrace 1.16, written by Peter Selinger 2001-2019
</metadata>
<g transform="translate(0.000000,2689.000000) scale(0.100000,-0.100000)"
fill="#000000" stroke="none">
<path d="M12880 26863 c-336 -13 -871 -60 -1225 -108 -4150 -557 -7781 -3002
-9862 -6640 -920 -1609 -1495 -3375 -1697 -5215 -62 -564 -80 -955 -73 -1610
6 -502 10 -608 42 -990 201 -2372 1055 -4705 2428 -6630 873 -1223 1954 -2307
3173 -3177 1641 -1172 3548 -1956 5575 -2292 832 -138 1494 -188 2392 -178
496 5 628 11 997 42 1324 114 2567 407 3785 892 2070 825 3913 2160 5341 3868
1479 1769 2493 3920 2899 6148 145 796 212 1497 222 2307 11 943 -65 1809
-238 2700 -521 2678 -1768 5029 -3679 6940 -1056 1056 -2250 1914 -3575 2570
-1676 829 -3408 1276 -5304 1370 -180 9 -1001 11 -1201 3z m1460 -1027 c1647
-123 3185 -546 4650 -1277 1039 -519 1982 -1166 2840 -1948 161 -147 644 -630
791 -791 1247 -1368 2188 -3017 2714 -4755 292 -967 443 -1803 517 -2865 18
-252 18 -1292 0 -1535 -50 -700 -128 -1258 -257 -1850 -550 -2526 -1860 -4803
-3755 -6530 -1196 -1090 -2569 -1934 -4035 -2480 -1172 -436 -2308 -676 -3635
-767 -246 -17 -1182 -17 -1435 0 -1071 71 -2011 242 -2980 542 -1089 337
-2173 853 -3145 1495 -1382 914 -2591 2116 -3495 3475 -1174 1766 -1895 3848
-2050 5920 -145 1947 155 3870 881 5659 1226 3018 3630 5460 6639 6746 1278
546 2717 886 4080 965 99 6 205 12 235 14 30 2 318 2 640 1 419 -2 646 -7 800
-19z"/>
<path d="M11735 21676 c-27 -8 -223 -71 -435 -139 -212 -69 -497 -161 -635
-205 -137 -45 -448 -144 -689 -222 -602 -194 -762 -254 -834 -315 -43 -36 -93
-144 -99 -215 -8 -89 14 -171 194 -713 91 -274 163 -500 161 -501 -1 -1 -76
-51 -166 -110 -170 -113 -353 -246 -509 -373 l-93 -75 -62 45 c-35 24 -241
174 -458 332 -217 158 -420 299 -450 314 -47 22 -69 26 -145 26 -76 0 -99 -4
-145 -26 -30 -14 -69 -38 -87 -53 -18 -15 -149 -188 -293 -386 -143 -197 -281
-381 -306 -409 -25 -28 -43 -55 -40 -60 3 -5 -2 -15 -12 -22 -15 -13 -16 -12
-3 4 7 9 11 17 7 17 -8 0 -222 -259 -327 -395 l-84 -110 53 45 c29 24 73 74
97 110 24 36 60 81 80 100 20 19 -59 -97 -176 -259 -117 -162 -215 -289 -217
-283 -2 7 8 37 22 67 14 30 23 55 21 55 -3 0 -230 -336 -250 -369 -6 -10 -2
-11 16 -6 27 9 35 22 -89 -149 -103 -142 -126 -201 -120 -306 5 -81 28 -145
74 -206 16 -20 226 -180 483 -366 251 -182 463 -338 473 -347 15 -15 13 -24
-28 -126 -61 -155 -166 -474 -211 -645 l-38 -145 -610 -5 -610 -5 -47 -23
c-75 -38 -134 -96 -170 -170 l-33 -67 0 -1365 0 -1365 33 -67 c36 -74 96 -133
170 -170 l47 -23 609 -5 609 -5 43 -158 c54 -195 127 -418 198 -605 l54 -143
-71 -53 c-40 -29 -202 -146 -362 -261 -563 -404 -587 -427 -614 -591 -24 -150
-57 -99 1040 -1599 217 -297 430 -588 473 -647 118 -163 187 -208 332 -216
130 -7 142 0 684 398 184 135 358 262 387 283 l52 38 123 -98 c184 -147 529
-392 635 -451 18 -10 31 35 -188 -632 -147 -447 -153 -468 -153 -550 -1 -73 3
-93 27 -145 33 -71 95 -138 157 -170 25 -12 311 -109 635 -215 325 -105 804
-261 1065 -346 615 -201 810 -262 857 -270 49 -8 138 9 197 37 58 27 128 94
156 149 12 23 100 283 195 577 96 294 176 537 178 539 2 2 103 -1 223 -7 203
-10 473 -7 654 7 l76 6 178 -548 c193 -595 205 -624 294 -689 64 -47 133 -69
217 -69 61 0 108 13 380 101 171 56 551 179 845 273 1142 366 1329 431 1427
495 43 29 58 47 90 112 34 70 38 84 37 153 -1 101 -18 160 -199 700 -85 255
-155 469 -155 476 0 6 48 41 106 79 154 99 360 247 514 370 74 59 139 109 145
111 5 2 123 -80 260 -181 596 -441 683 -501 769 -525 63 -17 181 -8 233 19
107 54 94 37 980 1266 171 237 321 450 334 475 20 38 24 59 24 140 0 89 -2 99
-34 158 -40 74 -100 130 -180 169 -49 25 -68 28 -151 28 -111 0 -162 -19 -233
-88 -23 -23 -248 -327 -501 -675 -252 -347 -463 -632 -468 -632 -6 0 -150 105
-322 234 -509 382 -602 436 -756 436 -83 0 -144 -29 -232 -108 -310 -281 -579
-481 -946 -702 -258 -156 -318 -218 -329 -339 -10 -111 23 -235 224 -845 73
-223 101 -321 93 -326 -20 -12 -1721 -563 -1725 -558 -2 2 -78 231 -168 508
-90 278 -172 520 -181 539 -28 53 -102 120 -163 148 -75 34 -162 39 -328 19
-344 -41 -746 -45 -1110 -11 -260 25 -342 10 -419 -75 -75 -84 -146 -267 -341
-882 -43 -137 -82 -248 -87 -248 -4 0 -362 115 -795 256 -434 141 -819 266
-857 277 -37 11 -70 26 -73 33 -2 6 55 193 127 415 215 659 202 613 198 704
-4 67 -10 90 -37 141 -45 85 -86 121 -241 209 -295 169 -573 366 -840 596
-199 171 -267 222 -324 244 -68 26 -144 16 -237 -30 -114 -58 -159 -90 -743
-520 -94 -68 -171 -123 -172 -122 -1 1 -242 334 -537 740 l-536 738 92 67 c51
37 227 166 392 285 165 119 326 238 358 263 103 80 153 189 145 313 -3 55 -17
95 -77 236 -155 361 -225 572 -327 983 -85 342 -105 388 -191 439 -106 62
-302 78 -860 70 l-393 -6 0 917 0 917 417 -3 c590 -5 765 12 858 82 69 53 93
117 185 497 76 317 176 611 313 919 31 69 61 147 68 173 25 100 -7 234 -76
315 -19 23 -774 581 -903 667 -2 2 620 861 997 1377 l78 107 224 -165 c565
-418 679 -491 802 -514 106 -21 179 16 388 197 326 281 606 480 958 683 40 23
91 58 112 77 56 51 101 147 107 232 6 85 -7 131 -196 706 -77 231 -138 421
-137 423 4 5 1723 562 1734 562 6 0 11 -2 11 -5 0 -3 51 -176 114 -383 160
-526 220 -668 322 -762 78 -72 118 -84 259 -77 66 3 174 12 240 18 157 16 754
16 910 0 66 -6 168 -14 226 -18 123 -7 172 5 256 63 95 65 106 89 287 648 91
280 167 511 170 514 6 6 1720 -548 1732 -560 3 -4 -53 -184 -125 -400 -162
-489 -190 -590 -198 -700 -11 -165 34 -222 298 -383 346 -211 569 -371 822
-591 276 -241 293 -251 416 -242 143 11 243 70 702 415 l349 262 53 -72 c29
-39 185 -256 347 -482 476 -664 564 -775 660 -826 38 -20 59 -24 140 -24 88 0
101 3 162 33 82 40 148 111 179 190 31 79 32 198 2 264 -12 27 -144 218 -294
425 -150 208 -360 500 -468 648 -487 677 -503 692 -681 703 -138 8 -137 8
-743 -435 l-387 -284 -133 105 c-185 146 -329 251 -494 358 -78 51 -142 98
-143 103 0 10 117 375 272 845 72 218 81 253 81 320 0 95 -28 171 -88 237 -57
64 -109 91 -295 151 -85 28 -643 209 -1240 403 -1004 327 -1090 353 -1155 353
-125 1 -236 -57 -301 -156 -20 -31 -86 -219 -209 -597 l-180 -553 -94 7 c-121
8 -683 8 -782 -1 l-77 -6 -50 153 c-28 85 -108 330 -178 544 -69 215 -134 406
-144 425 -68 134 -259 217 -405 176z"/>
<path d="M12765 18644 c-562 -41 -920 -108 -1370 -259 -1152 -384 -2116 -1159
-2728 -2191 -399 -674 -647 -1470 -708 -2274 -15 -199 -6 -697 15 -880 155
-1311 801 -2467 1856 -3320 733 -593 1660 -990 2575 -1104 400 -50 837 -50
1230 0 773 99 1545 401 2215 869 264 184 315 250 315 405 0 74 -4 93 -31 150
-62 131 -176 211 -311 218 -91 5 -146 -13 -238 -78 -291 -206 -444 -299 -683
-419 -477 -238 -960 -375 -1522 -433 -182 -18 -629 -16 -820 5 -992 109 -1874
519 -2569 1192 -1176 1141 -1607 2860 -1104 4410 416 1285 1377 2279 2647
2740 1324 480 2817 270 3968 -557 170 -122 195 -133 303 -133 76 0 99 4 145
26 74 34 146 109 184 189 27 57 31 76 31 150 0 148 -46 213 -260 365 -729 520
-1553 826 -2465 915 -109 11 -587 21 -675 14z"/>
<path d="M12792 16409 c-148 -19 -277 -82 -382 -188 -88 -89 -123 -151 -203
-361 -49 -129 -369 -963 -1416 -3690 -193 -501 -306 -808 -313 -851 -41 -236
140 -456 401 -488 84 -11 180 2 248 34 67 30 151 110 188 177 15 28 139 358
275 732 l248 681 1062 0 1061 0 258 -675 c141 -371 270 -699 286 -729 87 -160
261 -245 454 -221 270 34 459 260 421 503 -13 85 0 51 -433 1112 -195 479
-599 1469 -897 2200 -298 732 -560 1368 -583 1415 -117 241 -396 385 -675 349z
m477 -2116 c217 -571 396 -1044 398 -1050 4 -10 -155 -13 -777 -13 -622 0
-781 3 -777 13 52 139 747 2068 747 2076 0 6 4 11 8 11 4 0 185 -467 401
-1037z"/>
<path d="M16400 16409 c-187 -33 -340 -190 -370 -379 -14 -89 -13 -4728 0
-4825 33 -224 214 -375 450 -375 84 0 169 19 232 51 58 30 140 110 171 167 57
105 57 99 57 1055 l0 879 563 -7 c763 -10 1066 7 1412 76 715 143 1169 538
1335 1163 98 371 88 748 -31 1110 -82 251 -201 449 -373 622 -241 242 -486
351 -936 419 -281 42 -408 47 -1450 50 -614 2 -1026 0 -1060 -6z m2210 -848
c306 -39 457 -110 577 -268 249 -329 249 -862 -2 -1165 -96 -118 -234 -199
-414 -244 -213 -54 -258 -57 -1073 -61 l-758 -4 0 875 0 875 133 4 c286 8
1454 -1 1537 -12z"/>
<path d="M21309 16395 c-149 -41 -257 -141 -305 -285 -18 -53 -19 -140 -19
-2490 l0 -2435 23 -65 c40 -117 135 -215 251 -260 69 -27 214 -38 291 -21 124
27 247 117 299 219 54 106 51 -39 51 2559 0 1740 -3 2417 -11 2455 -23 108
-104 221 -197 275 -101 60 -267 81 -383 48z"/>
</g>
</svg>
